# AST/ASF file generated using VICON BodyLanguage
# -----------------------------------------------
:version 1.10
:name VICON
:units
  mass 1.0
  length 0.45
  angle deg
:documentation
   .ast/.asf automatically generated from VICON data using
   VICON BodyBuilder and BodyLanguage model FoxedUp or BRILLIANT.MOD
:root
   order TX TY TZ RX RY RZ
   axis XYZ
   position 0 0 0  
   orientation 0 -0 0 
:bonedata
  begin
     id 1 
     name lhipjoint
     direction 0.500677 -0.737119 0.453848 
     length 2.34727 
     axis 0 -0 0  XYZ
  end
  begin
     id 2 
     name lfemur
     direction 0.34202 -0.939693 0  
     length 7.53653  
     axis 0 -0 20  XYZ
    dof rx ry rz
    limits (-160.0 20.0)
           (-70.0 70.0)
           (-60.0 70.0)
  end
  begin
     id 3 
     name ltibia
     direction 0.34202 -0.939693 0   
     length 6.85572   
     axis 0 -0 20   XYZ
    dof rx
    limits (-10.0 170.0)
  end
  begin
     id 4 
     name lfoot
     direction 0.155313 -0.426718 0.890949   
     length 2.18324   
     axis -90 -1.13533e-015 20   XYZ
    dof rx rz
    limits (-45.0 90.0)
           (-70.0 20.0)
  end
  begin
     id 5 
     name ltoes
     direction 1.53474e-011 -4.21647e-011 1   
     length 1.06748   
     axis -90 -1.13533e-015 20   XYZ
    dof rx
    limits (-90.0 20.0)
  end
  begin
     id 6 
     name rhipjoint
     direction -0.632471 -0.659587 0.406111   
     length 2.62319  
     axis 0 -0 0  XYZ 
  end
  begin
     id 7 
     name rfemur
     direction -0.34202 -0.939693 0   
     length 7.21735   
     axis 0 -0 -20   XYZ
    dof rx ry rz
    limits (-160.0 20.0)
           (-70.0 70.0)
           (-70.0 60.0)
  end
  begin
     id 8 
     name rtibia
     direction -0.34202 -0.939693 0   
     length 7.02558   
     axis 0 -0 -20   XYZ
    dof rx
    limits (-10.0 170.0)
 end
 begin
     id 9 
     name rfoot
     direction -0.16057 -0.441164 0.882945   
     length 2.10014  
     axis -90 1.13533e-015 -20   XYZ
    dof rx rz
    limits (-45.0 90.0)
           (-20.0 70.0)
  end
  begin
     id 10 
     name rtoes
     direction -1.53553e-011 -4.2192e-011 1   
     length 1.02554   
     axis -90 1.13533e-015 -20   XYZ
    dof rx
    limits (-90.0 20.0)
  end
  begin
     id 11 
     name lowerback
     direction 0.0401429 0.998861 -0.0258085   
     length 1.80848   
     axis 0 -0 0   XYZ
    dof rx ry rz
    limits (-20.0 45.0)
           (-30.0 30.0)
           (-30.0 30.0)
  end
  begin
     id 12 
     name upperback
     direction -0.0130978 0.999914 -0.000352645   
     length 1.8116   
     axis 0 -0 0   XYZ
    dof rx ry rz
    limits (-20.0 45.0)
           (-30.0 30.0)
           (-30.0 30.0)
  end
  begin
     id 13 
     name thorax
     direction -0.0300198 0.999453 0.0138573   
     length 1.81778   
     axis 0 -0 0   XYZ
    dof rx ry rz
    limits (-20.0 45.0)
           (-30.0 30.0)
           (-30.0 30.0)
  end
  begin
     id 14 
     name lowerneck
     direction -0.0401726 0.999191 -0.00173647   
     length 2.10594   
     axis 0 -0 0   XYZ
    dof rx ry rz
    limits (-20.0 45.0)
           (-30.0 30.0)
           (-30.0 30.0)
  end
  begin
     id 15 
     name upperneck
     direction 0.0119835 0.998501 0.0534085   
     length 2.07325   
     axis 0 -0 0   XYZ
    dof rx ry rz
    limits (-20.0 45.0)
           (-30.0 30.0)
           (-30.0 30.0)
  end
  begin
     id 16
     name head
     direction 0.00628309 0.999826 0.0175921  
     length 2.15096  
     axis 0 -0 0   XYZ
    dof rx ry rz
    limits (-20.0 45.0)
           (-30.0 30.0)
           (-30.0 30.0)
  end
  begin
     id 17 
     name lclavicle
     direction 0.895501 0.429681 -0.115981  
     length 4.18092  
     axis 0 -0 0   XYZ
    dof ry rz
    limits (-20.0 10.0)
           (0.0 20.0)
  end
  begin
     id 18 
     name lhumerus
     direction 1 -4.48961e-011 -3.38433e-028   
     length 5.77237   
     axis 180 -30 -90   XYZ
    dof rx ry rz
    limits (-60.0 90.0)
           (-90.0 90.0)
           (-90.0 90.0)
  end
  begin
     id 19
     name lradius
     direction 1 -4.4901e-011 1.11983e-026   
     length 2.91878   
     axis 180 -30 -90   XYZ
    dof rx
    limits (-10.0 170.0)
  end
  begin
     id 20
     name lwrist
     direction 1 -4.48934e-011 1.88176e-026   
     length 1.45939   
     axis -1.23311e-014 90 90   XYZ
    dof ry
    limits (-180.0 0.0)
 end
  begin
     id 21 
     name lhand
     direction 1 -4.4895e-011 3.76352e-026   
     length 1.06566   
     axis -2.40147e-014 90 90   XYZ
    dof rx rz
    limits (-90.0 90.0)
           (-45.0 45.0)
  end
  begin
     id 22 
     name lfingers
     direction 1 -4.49005e-011 7.52705e-026   
     length 0.859162   
     axis -4.80295e-014 90 90   XYZ
    dof rx
    limits (0.0 90.0)
  end
  begin
     id 23
     name lthumb
     direction 0.707107 -6.34885e-011 0.707107   
     length 1.23359   
     axis -90 45 -9.86935e-015   XYZ
    dof rx rz
    limits (-45.0 45.0)
           (-45.0 45.0)
  end
  begin
     id 24 
     name rclavicle
     direction -0.91006 0.40451 -0.0903492   
     length 4.23293  
     axis 0 -0 0   XYZ 
    dof ry rz
    limits (-10.0 20.0)
           (-20.0 0.0)
  end
  begin
     id 25 
     name rhumerus
     direction -1 -4.4897e-011 1.7415e-027  
     length 5.49854   
     axis 180 30 90   XYZ
    dof rx ry rz
    limits (-90.0 60.0)
           (-90.0 90.0)
           (-90.0 90.0)
  end
  begin
     id 26 
     name rradius
     direction -1 -4.48963e-011 1.21259e-026   
     length 3.1186   
     axis 180 30 90   XYZ
    dof rx
    limits (-10.0 170.0)
  end
  begin
     id 27 
     name rwrist
     direction -1 -4.48967e-011 1.88176e-026   
     length 1.5593   
     axis -1.23311e-014 -90 -90   XYZ
    dof ry
    limits (-180.0 0.0)
  end
  begin
     id 28
     name rhand
     direction -1 -4.4895e-011 3.76352e-026   
     length 0.71207   
     axis -2.40147e-014 -90 -90   XYZ
    dof rx rz
    limits (-90.0 90.0)
           (-45.0 45.0)
  end
  begin
     id 29
     name rfingers
     direction -1 -4.49005e-011 7.52705e-026   
     length 0.574089   
     axis -4.80295e-014 -90 -90   XYZ
    dof rx
    limits (0.0 90.0)
  end
  begin
     id 30
     name rthumb
     direction -0.707107 -6.34982e-011 0.707107   
     length 0.824281   
     axis -90 -45 9.86935e-015   XYZ
    dof rx rz
    limits (-45.0 45.0)
           (-45.0 45.0)
  end
:hierarchy
  begin
    root lhipjoint rhipjoint lowerback
    lhipjoint lfemur
    lfemur ltibia
    ltibia lfoot
    lfoot ltoes
    rhipjoint rfemur
    rfemur rtibia
    rtibia rfoot
    rfoot rtoes
    lowerback upperback
    upperback thorax
    thorax lowerneck lclavicle rclavicle
    lowerneck upperneck
    upperneck head
    lclavicle lhumerus
    lhumerus lradius
    lradius lwrist
    lwrist lhand lthumb
    lhand lfingers
    rclavicle rhumerus
    rhumerus rradius
    rradius rwrist
    rwrist rhand rthumb
    rhand rfingers
  end

#!OML:ASF C:\ViconDB\ViconDB\414\Spring2016\042216\male.ASF
:FULLY-SPECIFIED
:DEGREES
697
root 14.1742 17.7138 15.6002 -177.634 33.5694 -178.593
lowerback -1.21048 -2.67321 3.86724
upperback -0.230054 -3.60592 0.0945297
thorax 0.209171 -1.7988 -2.10707
lowerneck 1.09742 -0.0802577 -9.03204
upperneck -1.82599 0.113485 13.0167
head -0.721415 0.0534352 5.40954
rclavicle -5.89086e-014 5.96354e-015
rhumerus -32.54 -0.16415 -90.8436
rradius 24.9489
rwrist 32.8691
rhand 11.725 -16.7766
rfingers 7.12502
rthumb 36.7606 -42.9026
lclavicle -5.89086e-014 5.96354e-015
lhumerus -32.5379 15.0871 87.5788
lradius 33.4876
lwrist -11.9266
lhand -7.33703 10.7441
lfingers 7.12502
lthumb 18.5467 39.88
rfemur 11.5773 6.97325 22.1003
rtibia -3.02153e-014
rfoot -6.54704 -4.93404
rtoes -10.1911
lfemur -14.5522 -5.46088 -19.0808
ltibia 25.4109
lfoot -23.8539 20.9955
ltoes -16.9128
698
root 14.168 17.7257 15.5363 -177.542 33.7869 -178.544
lowerback -1.32203 -2.61923 3.89659
upperback -0.227846 -3.53888 0.145424
thorax 0.279667 -1.76347 -2.07689
lowerneck 1.24845 0.190091 -9.03716
upperneck -1.9377 0.480773 13.032
head -0.820794 0.230332 5.41183
rclavicle 9.9602e-014 -1.05356e-014
rhumerus -32.2368 -0.454143 -90.6516
rradius 24.8108
rwrist 33.3847
rhand 11.622 -16.6783
rfingers 7.12502
rthumb 36.6631 -42.8292
lclavicle 9.9602e-014 -1.05356e-014
lhumerus -32.9457 15.2897 87.6804
lradius 33.8297
lwrist -12.2046
lhand -7.21803 10.7433
lfingers 7.12502
lthumb 18.6611 39.8682
rfemur 11.6612 7.10786 22.0345
rtibia 5.88403e-014
rfoot -6.58846 -5.0514
rtoes -10.2815
lfemur -14.5956 -5.72936 -18.9999
ltibia 24.2668
lfoot -22.3261 20.6965
ltoes -16.5309
699
root 14.1671 17.7285 15.4667 -177.791 34.1157 -178.808
lowerback -1.42259 -2.50631 3.77383
upperback -0.159318 -3.39424 -0.00835146
thorax 0.413509 -1.68891 -2.1722
lowerneck 1.51111 0.378394 -8.98515
upperneck -1.99858 0.732729 13.1397
head -0.911147 0.347026 5.43336
rclavicle -1.56979e-013 1.20265e-014
rhumerus -32.0554 -1.42153 -90.4618
rradius 24.7257
rwrist 34.3216
rhand 11.3972 -16.5924
rfingers 7.12502
rthumb 36.4503 -42.797
lclavicle -1.56979e-013 1.20265e-014
lhumerus -33.1157 14.9621 87.778
lradius 33.9319
lwrist -11.9759
lhand -7.3502 10.8743
lfingers 7.12502
lthumb 18.534 40.0113
rfemur 11.983 7.34283 21.6954
rtibia 1.59028e-015
rfoot -6.62508 -5.15212
rtoes -10.492
lfemur -14.3635 -5.90193 -19.279
ltibia 23.3364
lfoot -21.0166 20.3398
ltoes -15.074
700
root 14.1632 17.7233 15.3942 -177.929 34.3836 -178.959
lowerback -1.50909 -2.4852 3.63049
upperback -0.136404 -3.36851 -0.0442666
thorax 0.493248 -1.67479 -2.13399
lowerneck 1.50509 0.511549 -8.87021
upperneck -1.8464 0.893067 12.944
head -0.883252 0.428309 5.35028
rclavicle -1.08937e-013 1.51076e-014
rhumerus -31.8348 -1.98194 -90.3512
rradius 24.6015
rwrist 35.2653
rhand 11.322 -16.9512
rfingers 7.12502
rthumb 36.3791 -43.1737
lclavicle -1.08937e-013 1.51076e-014
lhumerus -33.431 14.8211 87.9816
lradius 34.0509
lwrist -11.579
lhand -6.92455 11.0548
lfingers 7.12502
lthumb 18.9434 40.1524
rfemur 12.2338 7.52272 21.4513
rtibia 2.54444e-014
rfoot -6.6356 -5.26615
rtoes -10.9351
lfemur -14.1093 -5.88565 -19.5121
ltibia 22.6138
lfoot -18.6728 19.9943
ltoes -13.4984
701
root 14.1616 17.7144 15.3338 -177.746 34.5933 -178.781
lowerback -1.64989 -2.45682 3.71129
upperback -0.173492 -3.33662 -0.041427
thorax 0.531583 -1.6582 -2.18152
lowerneck 1.44942 0.735797 -8.58635
upperneck -1.49804 1.16968 12.7252
head -0.801447 0.572396 5.22985
rclavicle 7.16937e-014 -2.33572e-015
rhumerus -31.5501 -2.66733 -90.2109
rradius 24.4393
rwrist 35.9893
rhand 10.9212 -16.9108
rfingers 7.12502
rthumb 35.9996 -43.2275
lclavicle 7.16937e-014 -2.33572e-015
lhumerus -33.6755 14.5841 88.0657
lradius 33.9824
lwrist -11.7934
lhand -6.69061 11.0605
lfingers 7.12502
lthumb 19.1684 40.1359
rfemur 12.3053 7.65012 21.5169
rtibia 3.18055e-014
rfoot -6.66344 -5.33873
rtoes -11.0481
lfemur -13.9186 -5.56054 -19.4415
ltibia 22.0251
lfoot -16.2387 19.4405
ltoes -9.47772
702
root 14.1607 17.7019 15.2656 -177.906 34.8477 -178.99
lowerback -1.78118 -2.40045 3.51029
upperback -0.148779 -3.26413 -0.165066
thorax 0.639184 -1.6207 -2.20239
lowerneck 1.48396 0.76431 -8.57426
upperneck -1.27745 1.18943 12.7684
head -0.745673 0.584474 5.24078
rclavicle -7.30145e-015 -3.8266e-015
rhumerus -31.2413 -3.49699 -90.1614
rradius 24.2279
rwrist 37.0022
rhand 10.8794 -17.1563
rfingers 7.12502
rthumb 35.9599 -43.4827
lclavicle -7.30145e-015 -3.8266e-015
lhumerus -33.9085 14.2649 88.1807
lradius 33.9426
lwrist -12.0462
lhand -6.42296 11.0711
lfingers 7.12502
lthumb 19.4257 40.1207
rfemur 12.5492 7.81684 21.2196
rtibia -1.74931e-014
rfoot -6.77928 -5.36149
rtoes -11.1646
lfemur -13.4071 -5.46574 -19.7532
ltibia 21.6602
lfoot -14.714 19.585
ltoes -3.77021
703
root 14.1614 17.6863 15.19 -178.178 35.21 -179.184
lowerback -1.83409 -2.31396 3.31346
upperback -0.124296 -3.14761 -0.256532
thorax 0.706797 -1.56186 -2.18779
lowerneck 1.4347 0.933626 -8.15759
upperneck -0.892726 1.38202 12.3052
head -0.641015 0.686368 5.02437
rclavicle 1.56921e-013 -5.73991e-015
rhumerus -31.0482 -4.18942 -90.0325
rradius 24.134
rwrist 37.7298
rhand 10.7753 -17.1544
rfingers 7.12502
rthumb 35.8613 -43.5048
lclavicle 1.56921e-013 -5.73991e-015
lhumerus -34.1026 13.4333 88.6229
lradius 33.718
lwrist -11.2309
lhand -6.80426 11.1057
lfingers 7.12502
lthumb 19.0591 40.1919
rfemur 12.9317 8.09362 20.9336
rtibia 1.59028e-015
rfoot -6.8933 -5.34768
rtoes -11.3818
lfemur -12.6438 -5.5119 -20.0805
ltibia 21.3704
lfoot -15.5249 20.2456
ltoes -5.20443
704
root 14.1622 17.6728 15.1166 -178.233 35.4891 -179.124
lowerback -1.87781 -2.27953 3.25841
upperback -0.168586 -3.10103 -0.274066
thorax 0.69064 -1.53949 -2.17505
lowerneck 1.33861 1.15312 -7.91281
upperneck -0.390267 1.64899 12.2243
head -0.504613 0.831287 4.95582
rclavicle -1.17882e-013 1.11816e-015
rhumerus -30.8931 -4.17378 -90.1324
rradius 24.1162
rwrist 38.0006
rhand 10.73 -17.0749
rfingers 7.12502
rthumb 35.8184 -43.4358
lclavicle -1.17882e-013 1.11816e-015
lhumerus -34.5026 13.4088 88.703
lradius 33.6481
lwrist -11.6698
lhand -6.71874 10.9971
lfingers 7.12502
lthumb 19.1413 40.0752
rfemur 13.2247 8.28996 20.8898
rtibia -3.49861e-014
rfoot -6.95299 -5.33708
rtoes -11.8889
lfemur -12.073 -5.2547 -20.2022
ltibia 21.1393
lfoot -17.7891 19.5122
ltoes -12.5888
705
root 14.1627 17.6622 15.0415 -178.321 35.7353 -179.23
lowerback -2.02561 -2.23797 3.00706
upperback -0.177355 -3.04498 -0.313537
thorax 0.778762 -1.51085 -2.0808
lowerneck 1.39306 1.20741 -7.78648
upperneck -0.248238 1.70505 12.0589
head -0.475596 0.859179 4.88279
rclavicle -8.08271e-015 7.63457e-015
rhumerus -30.7059 -4.16466 -90.2818
rradius 24.2929
rwrist 37.9925
rhand 10.6455 -17.0641
rfingers 7.12502
rthumb 35.7383 -43.4444
lclavicle -8.08271e-015 7.63457e-015
lhumerus -34.8428 13.0839 88.9753
lradius 33.6019
lwrist -11.5954
lhand -6.56631 11.0109
lfingers 7.12502
lthumb 19.2879 40.0744
rfemur 13.4481 8.4545 20.6791
rtibia 1.43125e-014
rfoot -7.0435 -5.3264
rtoes -12.3161
lfemur -11.6945 -5.14447 -20.4792
ltibia 20.9567
lfoot -18.2027 18.9281
ltoes -12.8944
706
root 14.1627 17.6551 14.9627 -178.261 36.0669 -179.046
lowerback -2.0969 -2.19947 3.06787
upperback -0.235445 -2.99584 -0.30674
thorax 0.759149 -1.48682 -2.10837
lowerneck 1.3176 1.29813 -8.02135
upperneck 0.0942278 1.80869 12.363
head -0.379508 0.920193 5.01651
rclavicle 5.41601e-014 3.08116e-015
rhumerus -30.5228 -4.10941 -90.5125
rradius 24.3778
rwrist 38.1795
rhand 10.2537 -17.2251
rfingers 7.12502
rthumb 35.3669 -43.6947
lclavicle 5.41601e-014 3.08116e-015
lhumerus -35.1608 12.0896 89.5135
lradius 33.4856
lwrist -10.798
lhand -6.93735 11.2763
lfingers 7.12502
lthumb 18.9311 40.375
rfemur 13.6728 8.70707 20.7315
rtibia 1.43125e-014
rfoot -7.16672 -5.35536
rtoes -12.1699
lfemur -11.3743 -4.69119 -20.552
ltibia 20.8363
lfoot -17.4406 19.0472
ltoes -11.046
707
root 14.1637 17.6546 14.8926 -178.118 36.2674 -178.737
lowerback -2.10132 -2.18937 3.14389
upperback -0.289405 -2.98305 -0.232942
thorax 0.707043 -1.48134 -2.07365
lowerneck 1.25178 1.52094 -7.62848
upperneck 0.308988 2.09272 11.9378
head -0.326721 1.06617 4.81689
rclavicle 5.086e-014 -7.23079e-015
rhumerus -30.4126 -3.76064 -90.7553
rradius 24.7029
rwrist 37.8947
rhand 10.1944 -16.9117
rfingers 7.12502
rthumb 35.3107 -43.3946
lclavicle 5.086e-014 -7.23079e-015
lhumerus -35.5516 12.5477 89.4935
lradius 33.4018
lwrist -11.8359
lhand -6.42029 11.2268
lfingers 7.12502
lthumb 19.4283 40.2762
rfemur 13.8817 8.82874 20.9071
rtibia 3.49861e-014
rfoot -7.28481 -5.36005
rtoes -12.289
lfemur -11.0959 -4.44729 -20.4837
ltibia 20.7108
lfoot -17.196 19.44
ltoes -10.6017
708
root 14.1642 17.6512 14.8142 -178.217 36.5165 -178.881
lowerback -2.33832 -2.12265 2.94926
upperback -0.232619 -2.89821 -0.301095
thorax 0.90912 -1.43569 -2.04488
lowerneck 1.15585 1.57883 -7.70843
upperneck 0.314561 2.17775 12.063
head -0.320166 1.11228 4.8686
rclavicle 1.12538e-013 2.83268e-015
rhumerus -30.1251 -3.37418 -91.0824
rradius 25.0771
rwrist 37.4511
rhand 9.82259 -16.9407
rfingers 7.12502
rthumb 34.9581 -43.5065
lclavicle 1.12538e-013 2.83268e-015
lhumerus -35.8045 12.3255 89.7481
lradius 33.3257
lwrist -12.1268
lhand -6.32944 11.201
lfingers 7.12502
lthumb 19.5156 40.2416
rfemur 14.0908 8.99867 20.6519
rtibia -1.27222e-014
rfoot -7.33084 -5.3461
rtoes -13.1068
lfemur -10.745 -4.39398 -20.8346
ltibia 20.584
lfoot -17.6977 19.4783
ltoes -11.5364
